<?xml version="1.0" encoding="UTF-8"?>
<svg width="148px" height="131px" viewBox="0 0 148 131" version="1.1" xmlns="http://www.w3.org/2000/svg" xmlns:xlink="http://www.w3.org/1999/xlink">
    <!-- Generator: Sketch 52.2 (67145) - http://www.bohemiancoding.com/sketch -->
    <title>Logo</title>
    <desc>Created with Sketch.</desc>
    <g id="Logo" stroke="none" stroke-width="1" fill="none" fill-rule="evenodd">
        <rect fill="#FFFFFF" x="0" y="0" width="148" height="131"></rect>
        <g id="Group-2" transform="translate(14.000000, 18.000000)" fill="#000000">
            <g id="noun_Thought-Bubble_56884" fill-rule="nonzero">
                <g id="Group">
                    <path d="M23.2847698,77.8222586 L23.1347107,77.8222586 C18.1827627,77.8222586 14.2812279,80.8386252 14.2812279,84.6090835 C14.2812279,88.5303601 18.0327037,91.697545 23.1347107,91.697545 L23.2847698,91.697545 C28.2367178,91.697545 32.1382527,88.6811784 32.1382527,84.9107201 C32.1382527,81.1402619 28.2367178,77.9730769 23.2847698,77.8222586 Z M23.1347107,88.3795417 C19.9834711,88.3795417 17.4324675,86.7205401 17.4324675,84.7599018 C17.4324675,82.9500818 19.9834711,81.2910802 22.8345927,81.2910802 L22.9846517,81.2910802 C25.9858323,81.2910802 28.5368359,82.9500818 28.5368359,84.9107201 C28.6868949,86.8713584 26.1358914,88.3795417 23.1347107,88.3795417 Z" id="Shape"></path>
                    <path d="M7.22845336,86.2680851 C3.32691854,86.2680851 0.47579693,88.5303601 0.325737898,91.5467267 C0.325737898,94.5630933 3.1768595,96.9761866 6.9283353,96.9761866 L7.07839433,96.9761866 C10.8298701,96.9761866 13.6809917,94.7139116 13.8310508,91.697545 C13.9811098,88.6811784 10.9799292,86.2680851 7.22845336,86.2680851 Z M7.22845336,93.507365 C5.27768595,93.507365 3.77709563,92.4516367 3.77709563,91.5467267 C3.77709563,90.6418167 5.12762692,89.7369067 7.07839433,89.7369067 L7.22845336,89.7369067 C9.17922078,89.7369067 10.5297521,90.792635 10.5297521,91.697545 C10.5297521,92.602455 9.17922078,93.507365 7.22845336,93.507365 Z" id="Shape"></path>
                    <path d="M123.824321,44.1897709 C123.824321,35.140671 116.471429,27.4489362 105.967296,25.1866612 C105.967296,25.1866612 105.967296,25.1866612 105.967296,25.0358429 C105.967296,14.1769231 95.3131051,5.27864157 82.2579693,5.27864157 C78.2063754,5.27864157 74.1547816,6.18355155 70.5533648,7.84255319 C66.0515939,3.01636661 59.1488784,0.150818331 51.7959858,0.150818331 C41.2918536,0.150818331 32.1382527,5.88191489 29.137072,14.0261047 C28.3867769,14.0261047 27.7865407,13.8752864 27.1863046,13.8752864 C20.8838253,13.8752864 15.031523,15.8359247 10.5297521,19.4555646 C5.87792208,23.2260229 3.32691854,28.2030278 3.32691854,33.4816694 C3.32691854,36.3472177 4.22727273,39.3635843 5.72786305,42.0783142 C2.12644628,45.5471358 0.175678867,50.0716858 0.175678867,54.747054 C0.175678867,65.6059738 10.8298701,74.5042553 23.8850059,74.5042553 C25.8357733,74.5042553 27.9365998,74.2026187 30.0374262,73.7501637 C33.938961,80.5369885 42.1922078,85.0615385 51.4958678,85.0615385 C57.6482881,85.0615385 63.5005903,83.1009002 68.0023613,79.4812602 C72.2040142,82.1959902 77.3060213,83.7041735 82.7081464,83.7041735 C95.7632822,83.7041735 106.417473,74.805892 106.417473,64.0977905 C106.417473,63.7961538 106.417473,63.3436989 106.417473,63.0420622 C116.621488,60.7797872 123.824321,53.0880524 123.824321,44.1897709 Z M103.416293,58.8191489 C102.816057,58.9699673 102.215821,59.2716039 101.765643,59.8748773 C101.465525,60.4781506 101.315466,61.0814239 101.465525,61.6846972 C101.615584,62.4387889 101.765643,63.3436989 101.765643,64.0977905 C101.765643,72.3927987 93.2122786,79.0288052 82.7081464,79.0288052 C77.6061393,79.0288052 72.9543093,77.5206219 69.2028335,74.6550736 C68.3024793,73.900982 66.9519481,74.0518003 66.2016529,74.805892 C62.4501771,78.4255319 57.198111,80.3861702 51.4958678,80.3861702 C43.39268,80.3861702 36.0397875,76.3140753 33.4887839,70.1305237 C33.0386068,69.2256137 32.2883117,68.6223404 31.3879575,68.6223404 C31.2378985,68.6223404 30.9377804,68.6223404 30.7877214,68.7731588 C28.3867769,69.5272504 26.2859504,69.8288871 24.0350649,69.8288871 C13.5309327,69.8288871 4.97756789,63.0420622 4.97756789,54.8978723 C4.97756789,50.9765957 6.9283353,47.2061375 10.379693,44.4914075 C11.4301063,43.7373159 11.5801653,42.2291326 10.8298701,41.1734043 C9.02916175,38.760311 8.12880756,36.1963993 8.12880756,33.6324877 C8.12880756,29.7112111 10.079575,26.0915712 13.5309327,23.2260229 C17.1323495,20.3604746 22.0842975,18.701473 27.1863046,18.701473 C28.2367178,18.701473 29.2871311,18.8522913 30.4876033,19.0031097 C31.6880756,19.153928 32.7384888,18.3998363 33.0386068,17.1932897 C34.6892562,10.1048282 42.6423849,4.97700491 51.7959858,4.97700491 C58.5486423,4.97700491 64.7010626,7.69173486 68.1524203,12.3671031 C68.9027155,13.2720131 70.1031877,13.5736498 71.1536009,12.9703764 C74.4548996,11.0097381 78.3564345,10.1048282 82.2579693,10.1048282 C92.7621015,10.1048282 101.315466,16.891653 101.315466,25.0358429 C101.315466,25.3374795 101.315466,25.6391162 101.165407,26.0915712 C101.165407,26.2423895 101.165407,26.5440262 101.015348,26.6948445 C100.865289,27.2981178 101.015348,27.9013912 101.465525,28.5046645 C101.915702,28.9571195 102.36588,29.4095745 102.966116,29.4095745 C112.269776,30.6161211 119.022432,36.7996727 119.022432,44.0389525 C119.172491,51.4290507 112.569894,57.6126023 103.416293,58.8191489 Z" id="Shape"></path>
                </g>
            </g>
            <text id="ThoughtBubble" transform="translate(63.042201, 49.623848) rotate(-8.000000) translate(-63.042201, -49.623848) " font-family="Avenir-Black, Avenir" font-size="14" font-weight="700" letter-spacing="0.140000001">
                <tspan x="11.3192013" y="54.123848">ThoughtBubble</tspan>
            </text>
        </g>
    </g>
</svg>