<?xml version="1.0" encoding="UTF-8"?>
<svg width="1024px" height="189px" viewBox="0 0 1024 189" version="1.1" xmlns="http://www.w3.org/2000/svg" xmlns:xlink="http://www.w3.org/1999/xlink">
    <!-- Generator: Sketch 52.2 (67145) - http://www.bohemiancoding.com/sketch -->
    <title>Slider</title>
    <desc>Created with Sketch.</desc>
    <g id="Slider" stroke="none" stroke-width="1" fill="none" fill-rule="evenodd">
        <rect fill="#FFFFFF" x="0" y="0" width="1024" height="189"></rect>
        <g id="Group-2" transform="translate(16.000000, 16.000000)">
            <g id="noun_Smile_747468" transform="translate(836.000000, 0.000000)" fill="#000000" fill-rule="nonzero">
                <g id="Group" transform="translate(0.000000, 0.278410)">
                    <path d="M78,0.725912984 C34.96922,0.725912984 0,35.7712529 0,78.8953587 C0,122.019605 34.96924,157.064744 78,157.064744 C121.03076,157.064744 156,122.019605 156,78.8953587 C156,35.7712529 121.03078,0.725912984 78,0.725912984 Z M78,8.74328587 C116.70722,8.74328587 148,40.104202 148,78.8953587 C148,117.686616 116.70724,149.047371 78,149.047371 C39.29276,149.047371 8,117.686616 8,78.8953587 C8,40.104202 39.29278,8.74328587 78,8.74328587 Z M48,38.8084342 C41.3724,38.8084342 36,44.1927415 36,50.8344935 C36,57.4762656 41.3724,62.8605528 48,62.8605528 C54.6274,62.8605528 60,57.4762656 60,50.8344935 C60,44.1927415 54.6274,38.8084342 48,38.8084342 Z M108,38.8084342 C101.3726,38.8084342 96,44.1927415 96,50.8344935 C96,57.4762656 101.3726,62.8605528 108,62.8605528 C114.6276,62.8605528 120,57.4762656 120,50.8344935 C120,44.1927415 114.6276,38.8084342 108,38.8084342 Z M115.9375,96.7464403 C114.70056,96.8506661 113.53012,97.5690228 112.875,98.6255121 C105.21708,109.703116 92.5206,116.97788 78.125,116.97788 C63.72918,116.97788 51.09544,109.703116 43.4375,98.6255121 C42.62034,97.3986536 41.08604,96.6929243 39.625,96.8717117 C36.8819,97.2130514 35.25636,100.952555 36.875,103.19802 C45.96066,116.340699 61.04642,124.995253 78.125,124.995253 C95.2034,124.995253 110.35182,116.340699 119.4375,103.19802 C121.24364,99.5234578 119.21734,97.0927908 115.9375,96.7464403 Z" id="Shape"></path>
                </g>
            </g>
            <g id="noun_Sad_747471" fill="#000000" fill-rule="nonzero">
                <g id="Group" transform="translate(0.000000, 0.278410)">
                    <path d="M78,0.725953071 C34.96922,0.725953071 0,35.771293 0,78.8953587 C0,122.019605 34.96924,157.064744 78,157.064744 C121.03076,157.064744 156,122.019605 156,78.8953587 C156,35.771313 121.03078,0.725973114 78,0.725973114 L78,0.725953071 Z M78,8.74332595 C116.70722,8.74332595 148,40.104222 148,78.8953587 C148,117.686616 116.70724,149.047371 78,149.047371 C39.29276,149.047371 8,117.686616 8,78.8953587 C8,40.104222 39.29278,8.743346 78,8.743346 L78,8.74332595 Z M48,38.8084141 C41.3724,38.8084141 36,44.1926813 36,50.8344734 C36,57.4762656 41.3724,62.8605328 48,62.8605328 C54.6274,62.8605328 60,57.4762656 60,50.8344734 C60,44.1926813 54.6274,38.8084141 48,38.8084141 Z M108,38.8084141 C101.3726,38.8084141 96,44.1926813 96,50.8344734 C96,57.4762656 101.3726,62.8605328 108,62.8605328 C114.6276,62.8605328 120,57.4762656 120,50.8344734 C120,44.1926813 114.6276,38.8084141 108,38.8084141 Z M78.125,90.921418 C61.04642,90.921418 45.96066,99.5132357 36.875,112.655915 C35.9812406,113.828175 35.8021212,115.397649 36.408681,116.74188 C37.0152409,118.086111 38.309462,118.987877 39.7780534,119.089534 C41.2466447,119.191192 42.6522873,118.476314 43.4375,117.228423 C51.09544,106.150819 63.72918,98.9387909 78.125,98.9387909 C92.5206,98.9387909 105.21708,106.151019 112.875,117.228423 C113.660213,118.476314 115.065855,119.191192 116.534447,119.089534 C118.003038,118.987877 119.297259,118.086111 119.903819,116.74188 C120.510379,115.397649 120.331259,113.828175 119.4375,112.655915 C110.35182,99.5132357 95.2034,90.921418 78.125,90.921418 Z" id="Shape"></path>
                </g>
            </g>
            <path d="M808.995192,81.27564 L183.931437,81.27564" id="Line-2" stroke="#D9D9D9" stroke-width="5" stroke-linecap="square"></path>
            <path d="M494.926981,44 L494.926981,116.00004" id="Line-3" stroke="#D9D9D9" stroke-width="5" stroke-linecap="square"></path>
            <path d="M338.926981,44 L338.926981,116.00004" id="Line-3-Copy-3" stroke="#D9D9D9" stroke-width="5" stroke-linecap="square"></path>
            <path d="M653.926981,44 L653.926981,116.00004" id="Line-3-Copy-4" stroke="#D9D9D9" stroke-width="5" stroke-linecap="square"></path>
            <path d="M179.926981,44 L179.926981,116.00004" id="Line-3-Copy" stroke="#D9D9D9" stroke-width="5" stroke-linecap="square"></path>
            <path d="M809.926981,44 L809.926981,116.00004" id="Line-3-Copy-2" stroke="#D9D9D9" stroke-width="5" stroke-linecap="square"></path>
        </g>
    </g>
</svg>